<?xml version="1.0" ?><!-- Uploaded to: SVG Repo, www.svgrepo.com, Generator: SVG Repo Mixer Tools -->
<svg width="800px" height="800px" viewBox="0 0 2050 2050" data-name="Layer 2" id="Layer_2" xmlns="http://www.w3.org/2000/svg"><defs><style>.cls-1{fill:#4d4c78;}.cls-2{fill:#c8c2e9;}.cls-3{fill:#dfdafd;}.cls-4{fill:#b9b1e0;}</style></defs><title/><path class="cls-1" d="M783,1348.1l-3.4-.2c-119.4-18.8-214.4-37.2-289.9-66.3-94.1-36.3-144.4-85.5-153.8-150.6s17.8-122.3,83.4-174.8c55.2-44.3,131.4-81.4,212.1-120.6,92.8-45,188.8-91.6,260.8-153,38-32.4,65.6-65.6,84.3-101.5,20.8-39.9,30.3-82.3,28.8-129.5-11.2-150.7-131.7-228.4-133-229.2a22,22,0,0,1,23.5-37.1c1.4.9,36.1,23.1,72.2,66.4,47.8,57.4,75.9,125.6,81.1,197.1a2.8,2.8,0,0,0,.1.9c3.3,102.7-38.8,189.8-128.5,266.3-76.3,65-174.8,112.8-270.1,159.1-78.4,38.1-152.5,74.1-203.9,115.3-26.1,20.9-44.2,41.5-55.4,62.8s-15.7,45.9-12,71.5,15.7,46.2,37.2,65.6,50.6,35.6,88.9,50.4c76.2,29.3,180.1,48,281,63.8a21.9,21.9,0,0,1-3.4,43.6Z"/><path class="cls-1" d="M859.1,1915.5a21.9,21.9,0,0,1-9.4-41.7c35.6-16.8,72.5-33.5,108.3-49.5,100.3-45.2,195-87.8,263.8-134.9,35.6-24.3,60.6-47.4,76.5-70.6s22.4-46.9,18.9-71.1c-4.4-30.5-22.2-56.4-54.3-79.1-30.4-21.5-73-39.9-130.4-56.1a21.9,21.9,0,1,1,11.9-42.2c62.3,17.6,109.3,38,143.9,62.5,41.8,29.6,66.2,66.1,72.3,108.6,5.1,35.1-3.7,69.5-26.2,102.3-19,27.6-47.7,54.4-87.8,81.9-72,49.3-168.5,92.7-270.6,138.7-35.6,16-72.3,32.5-107.6,49.1A20.7,20.7,0,0,1,859.1,1915.5Z"/><path class="cls-2" d="M1302.7,1048.3l235.9-125c209.2-351.8,178.4-689,172.1-788.8-309.4,357.1-434.8,318.3-665.2,580.8l-46,196.2-56.3-65c-301.1,431.8-85.4,926.7-85.4,926.7,64.8-260.3,391.7-471.5,539.8-656.1q30-34.2,56.4-68.8Z"/><path class="cls-3" d="M1043.1,959l46.1-196.2c226.1-257.6,325.6-289.2,621.5-627.7v-.6c-309.4,357.1-434.8,318.3-665.2,580.8L1000,909.2Z"/><path class="cls-3" d="M985.7,895.6l-42.5-49.1c-301.1,431.8-85.4,926.7-85.4,926.7a430.4,430.4,0,0,1,12.9-42.4C824.5,1568.8,764,1215.2,985.7,895.6Z"/><path class="cls-4" d="M1332.6,1117.1c-130.3,162.5-399.2,345.6-506,564.6,16.4,57.7,31.2,91.5,31.2,91.5,64.8-260.3,391.7-471.5,539.8-656.1q30-34.2,56.4-68.8h-65Q1362.6,1082.8,1332.6,1117.1Z"/><path class="cls-4" d="M1710.7,134.5q-31.8,36.6-61,67.9c6,143.8-1.4,427.3-176,720.9l-235.9,125h64.9l235.9-125C1747.8,571.5,1717,234.3,1710.7,134.5Z"/><path class="cls-4" d="M1334.2,723c-125.3,102.3-228.1,227.7-305.5,372.7-61.8,115.8-107.6,244.3-136.2,381.8a1639.5,1639.5,0,0,0-33.1,289.4c11.1-41.8,28.9-82.4,51.6-121.7a1580.1,1580.1,0,0,1,24.5-158.8c27.7-133.4,72.1-257.9,131.9-370C1142,976.5,1241.1,855.6,1361.9,757a21.9,21.9,0,0,0-27.7-34Z"/><path class="cls-1" d="M859,1915.5a22,22,0,0,1-21.8-19.6c-.2-1.8-4.8-46.8-3.5-121A1625.2,1625.2,0,0,1,867,1477.5c28.5-137.5,74.3-266,136.1-381.8,77.4-145,180.2-270.4,305.5-372.7a22,22,0,1,1,27.8,34c-120.8,98.6-219.9,219.5-294.6,359.4-59.8,112.1-104.2,236.6-131.9,370-47.1,227.4-29.2,403.1-29,404.9a22,22,0,0,1-19.5,24.1Z"/></svg>