<?xml version="1.0" encoding="iso-8859-1"?>
<!-- Uploaded to: SVG Repo, www.svgrepo.com, Generator: SVG Repo Mixer Tools -->
<svg version="1.1" id="Layer_1" xmlns="http://www.w3.org/2000/svg" xmlns:xlink="http://www.w3.org/1999/xlink" 
	 viewBox="0 0 512 512" xml:space="preserve">
<path style="fill:#A7CBCF;" d="M503.83,512H76.045c-4.512,0-8.17-3.658-8.17-8.17s3.658-8.17,8.17-8.17H495.66V75.348
	c0-4.512,3.658-8.17,8.17-8.17s8.17,3.658,8.17,8.17V503.83C512,508.342,508.342,512,503.83,512z"/>
<path style="fill:#2F5E88;" d="M503.83,50.837c-4.512,0-8.17-3.658-8.17-8.17V16.34h-27.012c-4.512,0-8.17-3.658-8.17-8.17
	S464.136,0,468.648,0h35.182c4.512,0,8.17,3.658,8.17,8.17v34.497C512,47.179,508.342,50.837,503.83,50.837z"/>
<path style="fill:#A7CBCF;" d="M8.17,444.822c-4.512,0-8.17-3.658-8.17-8.17V8.17C0,3.658,3.658,0,8.17,0h427.797
	c4.512,0,8.17,3.658,8.17,8.17s-3.658,8.17-8.17,8.17H16.34v420.312C16.34,441.165,12.682,444.822,8.17,444.822z"/>
<g>
	<path style="fill:#2F5E88;" d="M43.364,512H8.17C3.658,512,0,508.342,0,503.83v-34.497c0-4.512,3.658-8.17,8.17-8.17
		s8.17,3.658,8.17,8.17v26.327h27.024c4.512,0,8.17,3.658,8.17,8.17S47.876,512,43.364,512z"/>
	<rect x="403.282" y="295.032" style="fill:#2F5E88;" width="54.468" height="152.511"/>
</g>
<rect x="245.324" y="295.032" style="fill:#367596;" width="179.745" height="152.511"/>
<polygon style="fill:#88ACB5;" points="435.966,425.758 414.179,447.546 435.966,469.333 468.647,469.333 468.647,425.758 "/>
<rect x="234.431" y="425.755" style="fill:#A7CBCF;" width="201.532" height="43.574"/>
<polygon style="fill:#88ACB5;" points="435.966,273.248 414.179,295.035 435.966,316.822 468.647,316.822 468.647,273.248 "/>
<rect x="234.431" y="273.245" style="fill:#A7CBCF;" width="201.532" height="43.574"/>
<polygon style="fill:#88ACB5;" points="435.966,349.503 414.179,371.29 435.966,393.078 468.647,393.078 468.647,349.503 "/>
<rect x="234.431" y="349.5" style="fill:#A7CBCF;" width="201.532" height="43.574"/>
<rect x="212.219" y="64.458" style="fill:#2F5E88;" width="54.468" height="152.511"/>
<rect x="54.258" y="64.458" style="fill:#367596;" width="179.745" height="152.511"/>
<polygon style="fill:#88ACB5;" points="244.896,195.178 223.109,216.965 244.896,238.752 277.577,238.752 277.577,195.178 "/>
<rect x="43.364" y="195.181" style="fill:#A7CBCF;" width="201.532" height="43.574"/>
<polygon style="fill:#88ACB5;" points="244.896,42.667 223.109,64.454 244.896,86.241 277.577,86.241 277.577,42.667 "/>
<rect x="43.364" y="42.67" style="fill:#A7CBCF;" width="201.532" height="43.574"/>
<polygon style="fill:#88ACB5;" points="244.896,118.922 223.109,140.71 244.896,162.497 277.577,162.497 277.577,118.922 "/>
<rect x="43.364" y="118.926" style="fill:#A7CBCF;" width="201.532" height="43.574"/>
<g>
	<circle style="fill:#2F5E88;" cx="88.968" cy="370.383" r="8.17"/>
	<circle style="fill:#2F5E88;" cx="121.649" cy="370.383" r="8.17"/>
	<circle style="fill:#2F5E88;" cx="154.33" cy="370.383" r="8.17"/>
	<circle style="fill:#2F5E88;" cx="423.032" cy="141.617" r="8.17"/>
	<circle style="fill:#2F5E88;" cx="390.351" cy="141.617" r="8.17"/>
	<circle style="fill:#2F5E88;" cx="357.67" cy="141.617" r="8.17"/>
</g>
</svg>