<?xml version="1.0" encoding="iso-8859-1"?>
<!-- Uploaded to: SVG Repo, www.svgrepo.com, Generator: SVG Repo Mixer Tools -->
<svg version="1.1" id="Layer_1" xmlns="http://www.w3.org/2000/svg" xmlns:xlink="http://www.w3.org/1999/xlink" 
	 viewBox="0 0 512 512" xml:space="preserve">
<rect y="57.332" width="512" height="397.336"/>
<circle style="fill:#E21B1B;" cx="44.192" cy="89.38" r="8.928"/>
<g style="opacity:0.7;">
	<circle style="fill:#FFFFFF;" cx="70.968" cy="89.38" r="8.928"/>
</g>
<g>
	<circle style="fill:#666666;" cx="97.736" cy="89.38" r="8.928"/>
	<polygon style="fill:#666666;" points="443.52,105.06 155.96,105.06 175.08,73.716 462.656,73.716 	"/>
</g>
<g>
	<path style="fill:#FFFFFF;" d="M195.2,82.396l1.856,7.128c0.408,1.56,0.8,3.008,1.048,4.456h0.096c0.312-1.416,0.8-2.92,1.24-4.424
		l2.296-7.16h2.144l2.168,7.008c0.52,1.672,0.928,3.16,1.248,4.576h0.088c0.28-1.536,0.64-3.048,1.08-4.544l2.008-7.04h2.52
		l-4.52,14.016h-2.312l-2.144-6.688c-0.488-1.6-0.896-2.952-1.248-4.616h-0.056c-0.336,1.568-0.76,3.12-1.28,4.64l-2.264,6.664
		h-2.312l-4.224-14.016H195.2z"/>
	<path style="fill:#FFFFFF;" d="M216.856,82.396l1.856,7.128c0.408,1.56,0.8,3.008,1.048,4.456h0.088
		c0.32-1.416,0.8-2.92,1.248-4.424l2.28-7.16h2.144l2.176,7.008c0.52,1.672,0.928,3.16,1.24,4.576h0.096
		c0.272-1.536,0.632-3.056,1.08-4.544l2.008-7.04h2.52l-4.52,14.016h-2.328l-2.144-6.688c-0.496-1.512-0.912-3.056-1.24-4.616
		h-0.064c-0.328,1.568-0.752,3.12-1.272,4.64l-2.264,6.664h-2.328l-4.232-14.016H216.856z"/>
	<path style="fill:#FFFFFF;" d="M238.488,82.396l1.856,7.128c0.408,1.56,0.8,3.008,1.048,4.456h0.088
		c0.32-1.416,0.8-2.92,1.248-4.424l2.28-7.16h2.144l2.176,7.008c0.52,1.672,0.928,3.16,1.24,4.576h0.096
		c0.272-1.536,0.632-3.056,1.08-4.544l2.008-7.04h2.52l-4.52,14.016h-2.328l-2.152-6.688c-0.496-1.512-0.912-3.056-1.24-4.616
		h-0.064c-0.328,1.568-0.752,3.12-1.272,4.64l-2.264,6.664h-2.328l-4.232-14.016H238.488z"/>
</g>
<g>
	<polygon style="fill:#666666;" points="0,423.58 82.856,423.58 113.944,454.66 0,454.66 	"/>
	<polygon style="fill:#666666;" points="512,423.58 429.144,423.58 398.056,454.66 512,454.66 	"/>
</g>
<g>
	<rect x="405.336" y="314.716" style="fill:#FFFFFF;" width="42.664" height="8"/>
	<rect x="337.04" y="314.716" style="fill:#FFFFFF;" width="42.664" height="8"/>
	<rect x="268.8" y="314.716" style="fill:#FFFFFF;" width="42.664" height="8"/>
	<rect x="200.56" y="314.716" style="fill:#FFFFFF;" width="42.664" height="8"/>
	<rect x="132.264" y="314.716" style="fill:#FFFFFF;" width="42.672" height="8"/>
	<rect x="64" y="314.716" style="fill:#FFFFFF;" width="42.672" height="8"/>
	<circle style="fill:#FFFFFF;" cx="117.336" cy="222.692" r="16.232"/>
</g>
<g>
	<path style="fill:#E21B1B;" d="M170.672,230.692v-16l-16.272-1.6c-0.92-3.384-2.328-6.616-4.176-9.6l10.496-12.8l-11.312-11.344
		l-13.344,10.912c-2.824-1.488-5.832-2.608-8.944-3.312l-1.76-17.6h-16.056l-1.76,17.6c-3.112,0.704-6.12,1.824-8.944,3.312
		l-13.336-10.912L73.96,190.66l10.496,12.8c-1.848,2.984-3.256,6.216-4.176,9.6L64,214.708v16l16.296,1.6
		c0.92,3.384,2.32,6.616,4.16,9.6l-10.504,12.8l11.304,11.304L98.592,255.1c2.824,1.488,5.832,2.6,8.944,3.304l1.76,17.6h16.056
		l1.76-17.6c3.112-0.704,6.12-1.816,8.944-3.304l13.336,10.912l11.304-11.304l-10.504-12.8c1.84-2.984,3.24-6.216,4.16-9.6
		L170.672,230.692z M117.336,246.748c-13.288,0-24.056-10.768-24.056-24.056s10.768-24.056,24.056-24.056
		s24.056,10.768,24.056,24.056S130.624,246.748,117.336,246.748L117.336,246.748z"/>
	<rect x="195.376" y="165.388" style="fill:#E21B1B;" width="252.624" height="8"/>
</g>
<g>
	<rect x="195.376" y="197.388" style="fill:#BCBCBC;" width="252.624" height="8"/>
	<rect x="195.376" y="229.388" style="fill:#BCBCBC;" width="252.624" height="8"/>
	<rect x="195.376" y="261.388" style="fill:#BCBCBC;" width="252.624" height="8"/>
</g>
<rect x="64" y="357.388" style="fill:#E21B1B;" width="383.992" height="8"/>
</svg>