<!DOCTYPE svg PUBLIC "-//W3C//DTD SVG 1.1//EN" "http://www.w3.org/Graphics/SVG/1.1/DTD/svg11.dtd">
<!-- Uploaded to: SVG Repo, www.svgrepo.com, Transformed by: SVG Repo Mixer Tools -->
<svg fill="#000000" version="1.1" id="Capa_1" xmlns="http://www.w3.org/2000/svg" xmlns:xlink="http://www.w3.org/1999/xlink" width="800px" height="800px" viewBox="0 0 31.39 31.39" xml:space="preserve" stroke="#000000" stroke-width="0.00031395">
<g id="SVGRepo_bgCarrier" stroke-width="0"/>
<g id="SVGRepo_tracerCarrier" stroke-linecap="round" stroke-linejoin="round" stroke="#CCCCCC" stroke-width="4.08135"/>
<g id="SVGRepo_iconCarrier"> <g> <g> <path d="M30.662,1.843c-2.005,1.721-8.537,7.438-8.413,8.708l0.009,0.08l0.292,0.388l-0.457,0.001l-0.075,0.004 c-0.402,0.067-1.125,1.248-1.358,2.216c-0.272,1.125-0.003,2.028,0.784,2.617c0.045,0.035,0.094,0.063,0.14,0.093l-0.375,0.508 L20.6,16.041l-0.25,0.36l0.601,0.41l-2.81,3.811l1.317-0.742l1.974-2.738l0.438,0.299l0.246-0.36l-0.43-0.294l0.414-0.576 c0.473,0.173,1,0.219,1.565,0.125c1.254-0.211,2.452-1.06,2.647-1.527c0.059-0.141,0.039-0.252,0.006-0.325l-0.088-0.329 l0.332,0.099l0.147,0.007c0.272-0.046,0.647-0.109,2.606-6.202c0.94-2.932,1.803-5.888,1.81-5.918l0.269-0.926L30.662,1.843z M26.6,13.665L25.4,13.311l0.359,1.314c-0.169,0.261-1.119,0.964-2.189,1.144c-0.406,0.068-0.776,0.045-1.114-0.05l0.013-0.017 l4.356-6.772l-0.103-0.056l-4.718,6.506l-0.077,0.104c-0.046-0.03-0.098-0.052-0.142-0.083c-0.456-0.341-0.677-0.825-0.655-1.439 c0.038-1.049,0.766-2.154,1.006-2.362l1.562-0.007l-0.868-1.157c0.146-0.662,2.593-3.129,5.513-5.779l0.197,1.174l0.966-0.282 C28.275,9.54,27.055,13.097,26.6,13.665z M29.641,5.108l-0.795,0.233L28.68,4.354c0.531-0.479,1.073-0.959,1.619-1.437 C30.082,3.649,29.863,4.384,29.641,5.108z"/> <path d="M24.014,27.344c-1.048-0.421-2.25-0.634-3.58-0.634c-3.267,0-6.375,1.251-7.311,1.664v-5.978l0.436,0.479v-8.979 c1.76-1.48,3.917-2.239,6.425-2.239c0.219,0,0.43,0.007,0.637,0.018l0.497-0.707c-0.36-0.031-0.736-0.05-1.134-0.05 c-2.726,0-5.072,0.831-6.983,2.469c-1.911-1.638-4.258-2.469-6.983-2.469c-2.545,0-4.452,0.741-4.532,0.772L1.25,11.782v1.503 C0.479,13.429,0,13.688,0,14.109c0,2.192,0,15.495,0,15.495h11.411c0.396,0.354,0.973,0.577,1.618,0.577s1.223-0.224,1.617-0.577 h11.125c0,0,0-13.449,0-13.289c-0.627,0.461-1.76,0.703-1.76,0.703v10.326H24.014z M12.877,28.382 c-0.947-0.392-4.21-1.632-7.479-1.632c-1.29,0-2.435,0.197-3.41,0.59V12.295c0.569-0.191,2.12-0.639,4.028-0.639 c2.509,0,4.666,0.759,6.426,2.239v8.979l0.435-0.479V28.382z"/> <path d="M3.153,14.596l0.155,0.587c3.906-1.036,7.421,0.881,7.456,0.901l0.295-0.53C10.909,15.47,7.301,13.498,3.153,14.596z"/> <path d="M19.104,14.708c-0.693-0.083-2.315-0.279-4.361,0.362l0.181,0.58c1.923-0.604,3.397-0.424,4.106-0.339 c0.152,0.019,0.268,0.031,0.344,0.033l0.016-0.607C19.325,14.735,19.229,14.723,19.104,14.708z"/> <path d="M19.373,16.897l0.016-0.606c-0.063-0.001-0.158-0.015-0.283-0.029c-0.694-0.085-2.316-0.28-4.362,0.363l0.181,0.58 c1.922-0.605,3.398-0.425,4.107-0.339C19.184,16.882,19.297,16.895,19.373,16.897z"/> <path d="M14.742,18.125l0.181,0.58c1.919-0.604,3.077-0.458,3.634-0.391c0.131,0.018,0.232,0.028,0.31,0.03l0.016-0.606 c-0.063-0.002-0.146-0.014-0.249-0.025C18.032,17.639,16.784,17.485,14.742,18.125z"/> <path d="M3.153,16.315l0.155,0.586c3.906-1.036,7.421,0.881,7.456,0.901l0.295-0.53C10.909,17.188,7.301,15.215,3.153,16.315z"/> <path d="M3.153,17.93l0.155,0.586c3.906-1.035,7.421,0.881,7.456,0.901l0.295-0.53C10.909,18.802,7.301,16.832,3.153,17.93z"/> <path d="M3.153,19.7l0.155,0.587c3.906-1.036,7.421,0.881,7.456,0.899l0.295-0.529C10.909,20.573,7.301,18.6,3.153,19.7z"/> <path d="M3.153,21.339l0.155,0.587c3.906-1.035,7.421,0.881,7.456,0.901l0.295-0.53C10.909,22.213,7.301,20.241,3.153,21.339z"/> <path d="M3.153,23.024l0.155,0.586c3.906-1.035,7.421,0.881,7.456,0.901l0.295-0.53C10.909,23.897,7.301,21.925,3.153,23.024z"/> <path d="M3.153,24.713l0.155,0.585c3.906-1.036,7.421,0.882,7.456,0.901l0.295-0.529C10.909,25.585,7.301,23.612,3.153,24.713z"/> <path d="M10.335,10.122h6.403c0.281,0,0.521-0.093,0.691-0.271c0.297-0.309,0.289-0.756,0.289-0.798V4.97H15.95V4.442h0.512v-0.7 h-1.085l0.281-1.827h-3.992l0.281,1.827h-1.084v0.7h0.564V4.97h-2.04v4.103c-0.001,0.049-0.011,0.485,0.28,0.786 C9.834,10.03,10.064,10.122,10.335,10.122z M9.894,5.477h2.04V4.442h3.513v1.034h1.767v1.258h-7.32V5.477z M16.477,8.016v0.24 h-5.846v-0.24H16.477z M11.657,7.726v-0.24h3.897v0.24H11.657z M9.894,8.781h7.319v0.279c0,0.078-0.021,0.31-0.148,0.44 c-0.076,0.077-0.182,0.114-0.324,0.114h-6.404c-0.133,0-0.23-0.035-0.301-0.106C9.913,9.385,9.892,9.165,9.894,9.083V8.781z"/> </g> </g> </g>
</svg>